<?xml version="1.0" standalone="no"?>
<!DOCTYPE svg PUBLIC "-//W3C//DTD SVG 20010904//EN"
 "http://www.w3.org/TR/2001/REC-SVG-20010904/DTD/svg10.dtd">
<svg version="1.0" xmlns="http://www.w3.org/2000/svg"
 width="512.000000pt" height="512.000000pt" viewBox="0 0 512.000000 512.000000"
 preserveAspectRatio="xMidYMid meet">
<metadata>
Created by potrace 1.16, written by Peter Selinger 2001-2019
</metadata>
<g transform="translate(0.000000,512.000000) scale(0.100000,-0.100000)"
fill="#000000" stroke="none">
<path d="M1499 4647 c-52 -35 -59 -58 -59 -195 0 -139 11 -176 59 -205 37 -22
104 -22 137 -1 45 30 54 62 54 201 0 109 -3 133 -20 160 -38 63 -112 80 -171
40z"/>
<path d="M2216 4608 c-23 -24 -50 -78 -94 -189 -66 -166 -76 -225 -46 -267 37
-53 119 -67 174 -29 29 19 43 46 102 192 37 93 68 184 68 203 0 73 -52 122
-131 122 -33 0 -47 -6 -73 -32z"/>
<path d="M3045 4361 c-16 -10 -123 -113 -237 -228 l-208 -209 0 -48 c0 -61 20
-99 64 -120 40 -19 64 -20 103 -5 32 12 427 400 449 441 18 35 18 91 -1 128
-30 57 -112 77 -170 41z"/>
<path d="M1370 3960 c-171 -24 -333 -74 -470 -146 -744 -393 -957 -1351 -450
-2025 l48 -64 -30 -43 c-42 -62 -93 -175 -114 -257 -25 -99 -23 -284 4 -386
87 -326 368 -558 705 -585 205 -16 431 60 579 195 l53 49 75 -46 c140 -85 295
-143 475 -178 135 -27 387 -24 525 5 126 27 267 78 375 136 l80 42 35 -23 c56
-38 179 -100 249 -123 127 -44 199 -54 361 -54 134 0 168 4 251 26 134 35 232
78 339 149 395 260 576 751 444 1204 -106 368 -398 652 -769 750 -86 23 -121
27 -255 28 -85 1 -169 -2 -186 -6 -29 -6 -33 -3 -74 55 -98 139 -271 294 -433
389 -96 56 -253 119 -355 142 l-82 19 -34 61 c-194 346 -540 596 -929 671 -98
19 -326 27 -417 15z m320 -255 c276 -41 518 -179 696 -394 29 -35 51 -68 48
-73 -3 -4 -27 -8 -53 -8 -72 0 -209 -26 -319 -61 -215 -69 -390 -176 -553
-338 -199 -200 -323 -429 -378 -698 -11 -52 -22 -97 -25 -100 -3 -3 -39 -9
-82 -14 -90 -10 -184 -39 -269 -83 -33 -17 -63 -32 -67 -34 -12 -6 -110 142
-154 233 -192 402 -129 861 164 1202 242 281 627 424 992 368z m930 -725 c166
-22 321 -76 474 -167 107 -64 282 -237 362 -358 43 -65 69 -95 96 -108 35 -17
39 -17 136 3 172 35 318 23 478 -39 249 -96 444 -323 510 -591 26 -105 23
-278 -5 -385 -63 -242 -223 -437 -446 -545 -169 -82 -324 -106 -493 -76 -156
27 -250 71 -431 202 -51 37 -95 32 -172 -18 -162 -105 -347 -171 -532 -190
-267 -29 -560 54 -787 222 -94 70 -136 82 -191 56 -19 -9 -45 -32 -58 -51 -36
-53 -136 -142 -189 -169 -93 -46 -152 -61 -252 -61 -73 0 -111 6 -162 23 -185
64 -323 219 -363 407 -18 87 -18 122 0 208 40 188 174 339 359 405 62 22 87
26 191 25 180 -2 191 8 211 177 15 136 37 225 82 330 66 158 145 273 271 393
189 180 381 268 681 311 51 7 157 5 230 -4z"/>
</g>
</svg>
