<?xml version="1.0" standalone="no"?>
<!DOCTYPE svg PUBLIC "-//W3C//DTD SVG 20010904//EN"
 "http://www.w3.org/TR/2001/REC-SVG-20010904/DTD/svg10.dtd">
<svg version="1.0" xmlns="http://www.w3.org/2000/svg"
 width="512.000000pt" height="512.000000pt" viewBox="0 0 512.000000 512.000000"
 preserveAspectRatio="xMidYMid meet">
<metadata>
Created by potrace 1.16, written by Peter Selinger 2001-2019
</metadata>
<g transform="translate(0.000000,512.000000) scale(0.100000,-0.100000)"
fill="#000000" stroke="none">
<path d="M3335 4565 c-24 -23 -25 -29 -25 -154 0 -74 5 -141 11 -154 21 -47
80 -56 122 -19 15 13 17 35 17 164 0 135 -2 150 -20 168 -28 28 -75 26 -105
-5z"/>
<path d="M2272 4347 c-14 -15 -22 -36 -22 -57 0 -31 17 -51 173 -207 162 -162
175 -173 210 -173 47 0 77 28 77 72 0 29 -21 53 -178 210 -152 153 -182 178
-208 178 -19 0 -39 -9 -52 -23z"/>
<path d="M4249 4204 c-92 -92 -173 -179 -179 -195 -24 -56 27 -120 83 -105 12
3 102 86 200 184 143 144 177 184 177 206 0 37 -41 76 -81 76 -27 0 -53 -21
-200 -166z"/>
<path d="M3202 4014 c-178 -39 -363 -163 -459 -307 l-29 -44 -38 14 c-146 50
-423 57 -581 13 -291 -79 -542 -289 -670 -562 -42 -90 -82 -227 -91 -312 l-6
-63 -42 9 c-22 6 -95 8 -161 5 -96 -3 -136 -10 -200 -31 -241 -82 -421 -264
-495 -501 -28 -88 -38 -263 -21 -360 35 -202 161 -390 334 -503 142 -91 262
-122 480 -122 161 0 177 6 177 68 0 60 -25 72 -152 72 -249 0 -386 50 -529
191 -78 77 -141 194 -164 304 -66 314 125 627 440 721 80 24 248 25 327 1 69
-21 112 -22 128 -2 6 8 16 63 21 122 19 242 99 422 259 583 326 330 817 360
1180 73 168 -133 291 -341 329 -557 6 -33 11 -61 11 -62 0 -1 -55 -2 -122 -3
-103 0 -138 -4 -211 -25 -148 -44 -244 -103 -347 -213 -81 -86 -123 -157 -163
-270 -26 -74 -31 -104 -31 -187 -1 -98 -1 -100 26 -115 20 -12 34 -13 55 -5
32 11 35 21 56 155 26 173 117 319 258 415 89 60 162 90 261 105 187 29 385
-38 523 -176 336 -336 184 -900 -278 -1032 -32 -9 -118 -17 -220 -20 -164 -5
-168 -6 -187 -31 -27 -33 -26 -77 2 -96 31 -22 299 -22 402 -1 297 61 529 292
590 587 50 242 -19 499 -177 665 l-40 42 46 20 c155 67 320 241 385 407 70
177 66 438 -8 584 -31 60 -86 68 -123 17 -23 -30 -24 -17 20 -167 20 -68 22
-214 4 -290 -47 -197 -189 -358 -384 -436 l-79 -32 -56 25 c-32 14 -58 26 -59
27 -1 1 -6 39 -13 86 -23 178 -82 332 -181 475 -62 90 -205 229 -289 281 -33
20 -60 40 -60 45 0 4 20 31 44 61 94 115 225 190 381 216 87 15 103 15 190 0
115 -19 213 -64 305 -137 54 -44 69 -52 94 -47 15 3 32 6 36 6 9 0 30 46 30
66 0 44 -162 168 -279 214 -127 49 -314 64 -449 34z"/>
<path d="M4397 3282 c-27 -30 -22 -87 10 -112 26 -20 37 -21 164 -18 118 3
140 6 158 22 25 23 28 72 5 104 -14 21 -21 22 -168 22 -135 0 -155 -2 -169
-18z"/>
<path d="M4090 2530 c-13 -13 -20 -33 -20 -57 0 -35 11 -49 178 -215 154 -154
182 -178 209 -178 46 0 77 30 77 74 0 34 -12 49 -179 216 -160 160 -183 180
-212 180 -20 0 -41 -8 -53 -20z"/>
<path d="M1574 1402 c-26 -17 -37 -62 -42 -166 -3 -86 -1 -119 11 -148 18 -42
52 -57 96 -42 39 14 51 49 50 149 0 118 -12 185 -35 202 -19 14 -62 17 -80 5z"/>
<path d="M2036 1391 c-15 -16 -19 -46 -23 -159 l-6 -140 26 -26 c32 -32 65
-33 102 -4 l28 22 -6 143 c-4 118 -8 148 -23 164 -23 25 -75 25 -98 0z"/>
<path d="M2516 1397 c-23 -17 -35 -83 -35 -193 -1 -101 11 -138 50 -154 40
-17 84 2 98 42 13 36 13 171 2 242 -9 54 -30 76 -71 76 -14 0 -34 -6 -44 -13z"/>
<path d="M1799 941 c-23 -18 -24 -26 -27 -165 -3 -144 -3 -146 22 -171 14 -14
35 -25 46 -25 24 0 61 18 72 34 4 6 8 77 8 158 0 147 0 147 -26 167 -33 26
-65 27 -95 2z"/>
<path d="M2276 939 l-26 -20 0 -150 c0 -136 2 -151 20 -169 28 -28 75 -26 105
5 24 23 25 29 25 165 0 136 -1 142 -25 165 -30 30 -64 32 -99 4z"/>
</g>
</svg>
