<?xml version="1.0" standalone="no"?>
<!DOCTYPE svg PUBLIC "-//W3C//DTD SVG 20010904//EN"
 "http://www.w3.org/TR/2001/REC-SVG-20010904/DTD/svg10.dtd">
<svg version="1.0" xmlns="http://www.w3.org/2000/svg"
 width="512.000000pt" height="512.000000pt" viewBox="0 0 512.000000 512.000000"
 preserveAspectRatio="xMidYMid meet">
<metadata>
Created by potrace 1.16, written by Peter Selinger 2001-2019
</metadata>
<g transform="translate(0.000000,512.000000) scale(0.100000,-0.100000)"
fill="#000000" stroke="none">
<path d="M2500 4170 c-19 -19 -20 -33 -20 -229 l0 -210 26 -20 c15 -12 39 -21
54 -21 15 0 39 9 54 21 l26 20 0 210 c0 196 -1 210 -20 229 -13 13 -33 20 -60
20 -27 0 -47 -7 -60 -20z"/>
<path d="M1720 3973 c-33 -12 -50 -37 -50 -72 0 -26 22 -74 86 -186 48 -82 96
-160 107 -172 44 -49 137 -14 137 51 0 35 -165 337 -202 369 -20 17 -49 21
-78 10z"/>
<path d="M3322 3963 c-37 -32 -202 -334 -202 -369 0 -65 93 -100 137 -51 11
12 59 90 107 173 101 177 108 217 45 249 -37 20 -62 19 -87 -2z"/>
<path d="M2448 3480 c-510 -64 -878 -476 -878 -985 0 -135 12 -213 51 -328 16
-49 29 -90 29 -93 0 -2 -164 -4 -365 -4 l-366 0 -24 -25 c-35 -34 -30 -101 9
-127 6 -4 293 -8 639 -8 614 0 627 0 647 20 35 35 20 108 -27 129 -14 6 -85
11 -174 11 l-149 0 -19 31 c-11 17 -34 75 -52 128 -33 94 -34 100 -33 261 0
154 2 171 28 250 48 143 107 241 208 342 157 157 365 242 593 241 229 -1 414
-79 582 -244 257 -254 318 -645 153 -969 l-20 -40 -150 0 c-88 0 -159 -5 -173
-11 -47 -21 -62 -94 -27 -129 20 -20 33 -20 650 -20 l629 0 21 22 c28 31 26
83 -5 113 l-24 25 -370 0 -370 0 25 60 c119 293 76 659 -109 929 -42 62 -152
176 -218 226 -195 150 -469 226 -711 195z"/>
<path d="M1090 3348 c-42 -70 -27 -88 169 -201 99 -58 179 -97 195 -97 58 0
99 87 64 132 -7 9 -85 57 -172 107 -186 106 -222 114 -256 59z"/>
<path d="M3766 3286 c-87 -52 -162 -100 -167 -107 -30 -48 12 -129 67 -129 16
0 96 40 195 97 192 111 208 128 173 192 -17 32 -23 36 -64 38 -40 2 -61 -8
-204 -91z"/>
<path d="M880 2550 c-29 -29 -27 -90 3 -118 22 -21 32 -22 226 -22 201 0 202
0 226 25 31 30 33 82 5 113 -20 21 -28 22 -230 22 -197 0 -211 -1 -230 -20z"/>
<path d="M3780 2548 c-28 -31 -26 -83 5 -113 24 -25 25 -25 228 -25 200 0 204
0 225 23 29 30 30 89 2 117 -19 19 -33 20 -230 20 -202 0 -210 -1 -230 -22z"/>
<path d="M2450 1993 c-41 -37 -137 -126 -213 -200 l-138 -133 -425 0 -425 0
-24 -25 c-31 -30 -34 -86 -6 -114 17 -17 45 -19 452 -23 239 -2 451 -1 471 3
32 5 70 37 228 189 l190 182 186 -181 c126 -122 196 -183 217 -189 18 -5 232
-6 476 -4 417 4 445 6 462 23 28 28 25 84 -6 114 l-24 25 -425 0 -424 0 -144
138 c-79 75 -175 165 -214 200 -97 84 -113 84 -214 -5z"/>
<path d="M1530 1237 c-16 -8 -28 -26 -34 -50 -8 -31 -6 -42 11 -65 l20 -27
1031 -3 1030 -2 21 26 c12 15 21 35 21 46 0 32 -28 75 -52 82 -13 3 -473 6
-1023 6 -784 0 -1005 -3 -1025 -13z"/>
</g>
</svg>
